<?xml version="1.0" standalone="no"?>
<!DOCTYPE svg PUBLIC "-//W3C//DTD SVG 20010904//EN"
 "http://www.w3.org/TR/2001/REC-SVG-20010904/DTD/svg10.dtd">
<svg version="1.0" xmlns="http://www.w3.org/2000/svg"
 width="1280.000000pt" height="800.000000pt" viewBox="0 0 1280.000000 800.000000"
 preserveAspectRatio="xMidYMid meet">

<g transform="translate(0.000000,800.000000) scale(0.100000,-0.100000)"
fill="#000000" stroke="none">
<path d="M2385 4895 c-44 -23 -65 -53 -65 -94 0 -69 57 -111 150 -111 92 0
150 42 150 110 0 44 -19 73 -64 94 -43 20 -132 21 -171 1z m149 -9 c69 -29 87
-97 38 -146 -75 -75 -232 -35 -232 59 0 78 104 125 194 87z"/>
<path d="M2417 4832 c-23 -25 -21 -48 5 -66 43 -30 118 -9 118 33 0 46 -90 70
-123 33z"/>
<path d="M2742 4890 c-18 -11 -40 -36 -49 -56 -17 -34 -17 -37 2 -72 25 -47
75 -72 142 -72 64 0 96 12 128 46 49 52 23 136 -50 164 -46 17 -137 12 -173
-10z m162 -4 c69 -29 87 -97 38 -146 -75 -75 -232 -35 -232 59 0 78 104 125
194 87z"/>
<path d="M2787 4832 c-22 -24 -21 -45 1 -65 37 -34 122 -10 122 33 0 44 -91
68 -123 32z"/>
<path d="M3642 4640 c-150 -22 -242 -117 -242 -251 0 -128 58 -193 264 -296
170 -85 199 -104 228 -151 26 -42 22 -129 -8 -169 -65 -87 -234 -96 -382 -21
l-62 32 -41 -40 -41 -41 57 -37 c150 -100 351 -113 490 -32 155 92 170 324 27
446 -26 22 -115 73 -198 114 -176 87 -214 121 -214 189 0 55 31 104 76 123 45
19 159 21 210 4 22 -7 55 -23 75 -36 l36 -23 43 44 43 44 -49 30 c-97 62 -204
86 -312 71z"/>
<path d="M5050 4115 l0 -535 55 0 55 0 0 535 0 535 -55 0 -55 0 0 -535z"/>
<path d="M6663 4502 c-33 -21 -32 -82 1 -104 38 -26 96 7 96 54 0 44 -59 74
-97 50z"/>
<path d="M6178 4323 l-3 -78 -52 -3 -53 -3 0 -55 0 -54 55 0 55 0 0 -191 c0
-105 5 -210 11 -234 13 -51 57 -99 105 -115 40 -14 112 -6 139 14 17 12 17 15
-11 54 -26 36 -33 40 -68 39 -61 -3 -66 14 -66 241 l0 192 55 0 55 0 0 54 0
55 -52 3 -53 3 -3 78 -3 77 -54 0 -54 0 -3 -77z"/>
<path d="M2560 3945 l0 -355 85 0 85 0 0 355 0 355 -85 0 -85 0 0 -355z"/>
<path d="M5372 4018 c3 -209 6 -238 24 -278 25 -54 72 -103 128 -133 71 -37
175 -29 268 21 3 2 8 -7 10 -20 3 -21 8 -23 58 -23 l55 0 3 333 2 332 -59 0
-60 0 -3 -233 -3 -234 -29 -37 c-74 -97 -217 -82 -267 28 -16 36 -19 68 -19
259 l0 217 -56 0 -56 0 4 -232z"/>
<path d="M7760 3915 l0 -336 58 3 57 3 5 225 c5 216 6 226 28 258 75 105 247
75 282 -49 6 -19 10 -125 10 -236 l0 -203 57 0 56 0 -7 227 c-5 187 -10 233
-25 268 -59 134 -213 195 -345 137 -27 -12 -50 -22 -52 -22 -1 0 -4 12 -6 28
-3 26 -6 27 -60 30 l-58 3 0 -336z"/>
<path d="M4387 4226 c-53 -19 -113 -63 -146 -105 -52 -66 -64 -101 -69 -192
-4 -78 -2 -92 23 -148 28 -62 95 -135 151 -164 16 -8 56 -20 90 -27 149 -29
297 48 362 189 36 76 37 191 3 267 -26 59 -97 133 -161 166 -56 29 -193 36
-253 14z m235 -131 c28 -20 53 -49 71 -84 47 -93 32 -179 -42 -252 -78 -75
-175 -88 -267 -34 -119 70 -141 248 -41 342 55 53 85 64 164 60 61 -2 78 -7
115 -32z"/>
<path d="M6640 3910 l0 -330 55 0 55 0 0 330 0 330 -55 0 -55 0 0 -330z"/>
<path d="M7117 4226 c-49 -18 -111 -61 -143 -99 -50 -59 -67 -107 -72 -198 -4
-78 -2 -92 23 -148 28 -62 95 -135 151 -164 16 -8 56 -20 90 -27 149 -29 297
48 362 189 36 76 37 191 3 267 -26 59 -97 133 -161 166 -56 29 -193 36 -253
14z m235 -131 c75 -50 112 -154 88 -245 -16 -61 -89 -131 -153 -149 -90 -26
-188 11 -242 90 -38 53 -47 156 -20 210 64 127 212 170 327 94z"/>
</g>
</svg>
