<?xml version="1.0" standalone="no"?>
<!DOCTYPE svg PUBLIC "-//W3C//DTD SVG 20010904//EN"
 "http://www.w3.org/TR/2001/REC-SVG-20010904/DTD/svg10.dtd">
<svg version="1.0" xmlns="http://www.w3.org/2000/svg"
 width="700.000000pt" height="700.000000pt" viewBox="0 0 700.000000 700.000000"
 preserveAspectRatio="xMidYMid meet">
<metadata>
Created by potrace 1.11, written by Peter Selinger 2001-2013
</metadata>
<g transform="translate(0.000000,700.000000) scale(0.100000,-0.100000)"
fill="#000000" stroke="none">
<path d="M3417 6484 c-1 -2 -15 -5 -30 -8 -249 -45 -417 -294 -361 -536 23
-100 44 -165 54 -168 16 -6 113 -217 167 -366 81 -222 97 -369 53 -461 -23
-47 -43 -63 -88 -71 -143 -25 -384 -128 -503 -214 -50 -36 -68 -37 -126 -9
-102 50 -223 224 -261 378 -7 28 -7 150 0 246 26 354 -353 599 -680 438 -63
-31 -142 -99 -181 -157 -99 -145 -99 -348 0 -491 66 -96 137 -153 276 -220
198 -97 381 -254 479 -413 48 -79 55 -99 60 -172 3 -43 -1 -64 -18 -97 -13
-24 -27 -43 -33 -43 -6 0 -18 -12 -27 -28 -54 -92 -183 -173 -304 -192 -208
-33 -501 47 -658 179 -200 169 -495 76 -561 -177 -16 -58 -13 -114 7 -167 16
-43 66 -115 102 -149 41 -38 140 -84 196 -91 64 -8 161 9 228 41 305 145 782
43 860 -183 6 -18 9 -33 6 -33 -2 0 4 -17 15 -39 27 -52 65 -207 63 -254 -4
-87 -151 -144 -342 -134 -126 7 -170 19 -213 57 -55 48 -111 65 -212 65 -107
-1 -123 -4 -208 -44 -78 -35 -174 -127 -211 -199 -91 -179 -59 -381 83 -522
92 -92 219 -141 351 -136 162 7 262 62 367 199 141 185 307 315 462 361 70 21
103 20 121 -2 8 -10 33 -40 55 -67 22 -28 48 -59 59 -70 10 -11 33 -49 50 -85
26 -56 31 -76 31 -145 0 -86 -3 -100 -27 -157 -47 -107 -237 -241 -380 -269
-83 -16 -144 -45 -190 -91 -199 -199 -58 -545 232 -565 65 -5 84 -2 138 20
136 55 209 159 226 322 7 61 30 164 45 200 5 11 17 40 27 65 52 125 142 223
257 280 101 51 136 57 204 36 30 -10 63 -19 74 -21 11 -2 28 -6 37 -9 18 -5
44 -10 125 -22 47 -6 48 -7 95 -88 26 -44 56 -101 66 -126 10 -25 22 -54 27
-65 13 -28 29 -121 29 -164 0 -51 -40 -130 -88 -173 -23 -20 -89 -65 -148
-100 -64 -38 -122 -81 -146 -108 -132 -150 -153 -364 -51 -537 56 -96 194
-190 312 -211 241 -44 464 89 545 324 15 45 19 253 6 326 -5 24 -11 63 -14 88
-8 59 -15 99 -22 130 -3 14 -8 36 -10 50 -3 14 -18 86 -34 160 -40 177 -38
171 -54 275 -14 89 -15 182 -2 222 5 15 29 28 99 50 50 17 117 42 148 56 56
25 56 25 87 7 55 -33 67 -64 66 -160 -1 -47 -8 -130 -16 -185 -20 -129 -22
-259 -7 -321 52 -214 241 -357 464 -353 141 2 257 57 355 167 68 76 101 162
107 277 4 74 1 101 -16 155 -60 179 -207 289 -408 305 -59 5 -72 9 -95 34 -42
46 -61 189 -43 325 2 17 7 54 10 81 5 38 17 63 49 105 24 30 55 75 69 100 30
51 37 54 147 54 65 0 85 -5 150 -36 89 -42 168 -101 265 -195 79 -77 185 -205
202 -245 42 -95 184 -190 320 -213 192 -32 387 52 488 210 94 146 90 293 -12
467 -99 169 -255 258 -444 253 -92 -3 -136 -14 -209 -51 -89 -45 -223 -51
-338 -14 -81 26 -186 81 -299 157 l-84 57 7 40 c3 23 9 50 12 61 3 11 6 102 7
201 1 100 5 187 9 193 19 31 130 71 266 97 67 12 272 11 354 -3 81 -14 186
-17 242 -7 16 3 52 16 79 28 199 94 263 346 127 497 -67 75 -162 112 -281 108
-128 -4 -225 -59 -276 -158 -82 -160 -315 -260 -518 -222 -95 17 -106 27 -162
132 -73 138 -111 191 -222 308 l-72 76 17 29 c29 49 62 67 133 71 99 5 149 15
204 38 59 24 142 81 168 114 10 13 24 29 31 36 56 58 96 186 91 293 -11 249
-232 442 -488 428 -198 -11 -376 -147 -430 -330 -19 -64 -20 -212 -2 -267 29
-88 22 -167 -15 -187 -13 -7 -35 -2 -84 20 -85 39 -211 80 -286 93 -104 19
-95 13 -133 95 -61 132 -83 265 -62 385 18 108 89 249 156 312 105 100 130
128 153 173 130 256 -10 556 -294 632 -40 11 -185 21 -193 14z"/>
</g>
</svg>
